<svg id="Layer_1" data-name="Layer 1" xmlns="http://www.w3.org/2000/svg" width="7.06cm" height="7.06cm" viewBox="0 0 200.13 200.13"><defs><style>.cls-1{fill:#231f20;}.cls-2{fill:#f16923;}.cls-3{fill:#f16722;}</style></defs><title>blockchain-news</title><path class="cls-1" d="M36.51,138.78a12.58,12.58,0,0,1,3.61-.44A5,5,0,0,1,44.27,140a6.29,6.29,0,0,1,1.24,4.1A5.59,5.59,0,0,1,43.13,149v.13c1.89.74,2.91,2.93,2.91,5.41A7.54,7.54,0,0,1,44.82,159c-1,1.48-2.62,2.29-5.35,2.29a16.8,16.8,0,0,1-3-.24Zm3.17,9h.68c1.14,0,2-1.35,2-3.2,0-1.65-.56-2.93-1.87-2.93a1.89,1.89,0,0,0-.82.13Zm0,10.06a2.16,2.16,0,0,0,.7.07c1.28,0,2.35-1.08,2.35-3.4s-1.11-3.43-2.37-3.46h-.68Z"/><path class="cls-1" d="M47.93,137.84H51.1v23.27H47.93Z"/><path class="cls-1" d="M62,152.83c0,6.86-2.74,8.54-4.53,8.54-2.83,0-4.53-3.09-4.53-8.44,0-5.92,2.23-8.54,4.58-8.54C60.33,144.39,62,147.66,62,152.83Zm-5.91,0c0,2.82.31,5.18,1.45,5.18s1.28-2.76,1.28-5.18c0-2.25-.27-5.11-1.33-5.11S56.11,150.58,56.11,152.83Z"/><path class="cls-1" d="M70.38,160.84a4.23,4.23,0,0,1-2,.47c-3,0-5-2.89-5-8.27,0-5.08,2.16-8.61,5.43-8.61a3.55,3.55,0,0,1,1.74.44l-.41,3.46A2.54,2.54,0,0,0,69,148c-1.53,0-2.42,2-2.42,4.88s.9,4.81,2.37,4.81a2,2,0,0,0,1.19-.34Z"/><path class="cls-1" d="M74.79,151.86h0c.22-.94.39-1.61.61-2.29L77,144.66h3.42l-2.86,6.89,3,9.55H77l-1.7-6.76-.53,1.41v5.35H71.62V137.84h3.17Z"/><path class="cls-1" d="M87.95,160.84a4.23,4.23,0,0,1-2,.47c-3,0-5-2.89-5-8.27,0-5.08,2.16-8.61,5.43-8.61a3.55,3.55,0,0,1,1.74.44l-.41,3.46a2.54,2.54,0,0,0-1.19-.3c-1.53,0-2.42,2-2.42,4.88s.9,4.81,2.37,4.81a2,2,0,0,0,1.19-.34Z"/><path class="cls-1" d="M89.21,137.84h3.17v8.54h0a4.7,4.7,0,0,1,1-1.41,2.54,2.54,0,0,1,1.6-.57c2.18,0,3,2.56,3,6.73v10H94.9v-10c0-1.61-.22-3-1.16-3-.53,0-1,.44-1.24,1.55a9,9,0,0,0-.12,1.24v10.22H89.21Z"/><path class="cls-1" d="M105.61,161.11l-.17-1.61h0a3,3,0,0,1-2.62,1.88c-1.79,0-3.13-2.08-3.13-5,0-4.3,2.74-6.09,5.43-6.12v-.37c0-1.28-.56-2.22-1.67-2.22a3.58,3.58,0,0,0-2.42.94l-.58-3a6.11,6.11,0,0,1,3.68-1.24c3.61,0,4.19,3.5,4.19,6.83v6.12a30.51,30.51,0,0,0,.19,3.77Zm-.44-8c-1.07,0-2.52.5-2.52,2.79,0,1.65.65,2.25,1.14,2.25s1.09-.44,1.31-1.41a3.93,3.93,0,0,0,.07-.77Z"/><path class="cls-1" d="M113.7,140.29c0,1.41-.7,2.39-1.67,2.39s-1.6-1-1.57-2.39.75-2.39,1.62-2.39S113.7,138.81,113.7,140.29Zm-3.17,20.82V144.66h3.17v16.44Z"/><path class="cls-1" d="M115.93,149.61c0-1.82-.07-3.4-.1-4.94h2.74l.15,1.88h0a3.31,3.31,0,0,1,2.88-2.15c2.25,0,3.15,2.49,3.15,6.15v10.56h-3.17V150.82c0-1.41-.24-2.72-1.16-2.72-.53,0-1,.5-1.19,1.48a5.86,5.86,0,0,0-.17,1.51v10h-3.17Z"/><path class="cls-2" d="M127.36,161.11V138.44h1.77l3,10.63c.68,2.42,1.53,5.45,2.08,7.9h0c-.15-3.56-.22-6.49-.22-10.43v-8.1h1.67v22.67H134l-3.1-10.9c-.65-2.29-1.36-4.88-1.94-7.7h0c.15,3,.19,5.92.19,10.76v7.84Z"/><path class="cls-2" d="M139.69,153.2c0,5,1.43,6.05,2.79,6.05a3.1,3.1,0,0,0,1.94-.64l.29,1.92a4.38,4.38,0,0,1-2.57.77c-2.81,0-4.26-3.19-4.26-8.17,0-5.28,1.6-8.58,3.95-8.58s3.34,3.5,3.34,7.2c0,.61,0,1,0,1.45Zm3.68-1.92c0-3.26-.85-4.71-1.74-4.71-1.21,0-1.84,2.49-1.91,4.71Z"/><path class="cls-2" d="M148.13,144.83l1.14,8c.22,1.75.48,3.5.63,5.18h.1c.17-1.68.46-3.56.73-5.11l1.36-8h1.43l1.28,7.8c.29,1.82.56,3.53.75,5.35h.1c.15-1.72.36-3.4.63-5.25l1.11-7.9h1.87l-3,16.28h-1.53l-1.36-7.9c-.29-1.58-.46-3-.65-4.88h0c-.19,1.92-.41,3.43-.68,5l-1.41,7.8H149l-2.86-16.28Z"/><path class="cls-2" d="M160.58,158.42a3.08,3.08,0,0,0,1.89.84c1.07,0,1.72-.91,1.72-2.35a3.86,3.86,0,0,0-1.5-3.2,6,6,0,0,1-2.35-4.64c0-2.62,1.41-4.51,3.22-4.51a3.28,3.28,0,0,1,2.11.84l-.51,2a2.29,2.29,0,0,0-1.55-.71c-1,0-1.53,1-1.53,2.05s.29,1.71,1.45,2.82a6.33,6.33,0,0,1,2.42,4.94c0,3.26-1.6,4.84-3.51,4.84a3.27,3.27,0,0,1-2.33-.94Z"/><polygon class="cls-3" points="121.61 38.75 84.91 59.94 84.91 102.32 84.94 102.33 92.93 97.72 92.9 97.7 92.9 64.55 121.61 47.98 150.32 64.55 150.32 97.7 121.61 114.28 116.72 111.46 108.73 116.07 121.61 123.51 158.31 102.32 158.31 59.94 121.61 38.75"/><polygon class="cls-1" points="107.91 64.59 107.91 97.7 79.2 114.28 50.49 97.7 50.49 64.55 79.2 47.98 84.54 51.06 92.53 46.45 79.2 38.75 42.5 59.94 42.5 102.32 79.2 123.51 115.9 102.32 115.9 59.98 107.91 64.59"/></svg>