<svg id="Layer_1" data-name="Layer 1" xmlns="http://www.w3.org/2000/svg" width="7.06cm" height="7.06cm" viewBox="0 0 200.13 200.13"><defs><style>.cls-1{fill:#231f20;}.cls-2{fill:#f16923;}.cls-3{fill:#f16722;}</style></defs><title>blockchain-news</title><path class="cls-1" d="M24.49,146a14.91,14.91,0,0,1,4.28-.52,5.91,5.91,0,0,1,4.91,1.91,7.46,7.46,0,0,1,1.47,4.86,6.63,6.63,0,0,1-2.81,5.86v.16c2.24.88,3.45,3.47,3.45,6.42a8.94,8.94,0,0,1-1.44,5.26c-1.15,1.75-3.1,2.71-6.35,2.71a19.92,19.92,0,0,1-3.5-.28Zm3.76,10.65h.8c1.35,0,2.38-1.6,2.38-3.79,0-2-.66-3.47-2.21-3.47a2.24,2.24,0,0,0-1,.16Zm0,11.92a2.57,2.57,0,0,0,.83.08c1.52,0,2.79-1.28,2.79-4s-1.32-4.07-2.81-4.11h-.8Z"/><path class="cls-1" d="M38,144.85h3.76v27.59H38Z"/><path class="cls-1" d="M54.74,162.64c0,8.13-3.25,10.13-5.37,10.13-3.36,0-5.37-3.67-5.37-10,0-7,2.64-10.13,5.43-10.13C52.73,152.63,54.74,156.49,54.74,162.64Zm-7,0c0,3.35.37,6.14,1.72,6.14S51,165.51,51,162.64c0-2.67-.32-6.06-1.58-6.06S47.73,160,47.73,162.64Z"/><path class="cls-1" d="M64.65,172.13a5,5,0,0,1-2.38.56c-3.56,0-5.89-3.43-5.89-9.81,0-6,2.56-10.21,6.43-10.21a4.2,4.2,0,0,1,2.07.52l-.49,4.11a3,3,0,0,0-1.41-.36c-1.81,0-2.87,2.39-2.87,5.78,0,3.55,1.06,5.7,2.81,5.7a2.37,2.37,0,0,0,1.41-.4Z"/><path class="cls-1" d="M69.88,161.48h.06c.26-1.12.46-1.91.72-2.71l1.81-5.82h4.05l-3.39,8.17,3.59,11.32H72.52l-2-8-.63,1.68v6.34H66.12V144.85h3.76Z"/><path class="cls-1" d="M85.48,172.13a5,5,0,0,1-2.38.56c-3.56,0-5.89-3.43-5.89-9.81,0-6,2.56-10.21,6.43-10.21a4.2,4.2,0,0,1,2.07.52l-.49,4.11a3,3,0,0,0-1.41-.36c-1.81,0-2.87,2.39-2.87,5.78,0,3.55,1.06,5.7,2.81,5.7a2.37,2.37,0,0,0,1.41-.4Z"/><path class="cls-1" d="M87,144.85h3.76V155h.06A5.57,5.57,0,0,1,92,153.3a3,3,0,0,1,1.9-.68c2.59,0,3.59,3,3.59,8v11.84H93.72V160.6c0-1.91-.26-3.59-1.38-3.59-.63,0-1.18.52-1.47,1.83a10.65,10.65,0,0,0-.14,1.48v12.12H87Z"/><path class="cls-1" d="M106.42,172.44l-.2-1.91h-.06a3.5,3.5,0,0,1-3.1,2.23c-2.13,0-3.71-2.47-3.71-5.94,0-5.1,3.25-7.22,6.43-7.26v-.44c0-1.52-.66-2.63-2-2.63a4.24,4.24,0,0,0-2.87,1.12l-.69-3.51a7.25,7.25,0,0,1,4.37-1.48c4.28,0,5,4.15,5,8.09V168a36.17,36.17,0,0,0,.23,4.47ZM105.9,163c-1.26,0-3,.6-3,3.31,0,2,.78,2.67,1.35,2.67s1.29-.52,1.55-1.67a4.66,4.66,0,0,0,.09-.92Z"/><path class="cls-1" d="M116,147.76c0,1.67-.83,2.83-2,2.83s-1.9-1.16-1.87-2.83.89-2.83,1.92-2.83S116,146,116,147.76Zm-3.76,24.68v-19.5H116v19.5Z"/><path class="cls-1" d="M118.66,158.81c0-2.15-.09-4-.12-5.86h3.25l.17,2.23H122a3.92,3.92,0,0,1,3.42-2.55c2.67,0,3.73,3,3.73,7.3v12.52h-3.76v-12.2c0-1.67-.29-3.23-1.38-3.23-.63,0-1.15.6-1.41,1.75a7,7,0,0,0-.2,1.79v11.88h-3.76Z"/><path class="cls-2" d="M132.22,172.44V145.57h2.1l3.56,12.6c.8,2.87,1.81,6.46,2.47,9.37h.06c-.17-4.23-.26-7.7-.26-12.36v-9.61h2v26.88H140l-3.68-12.92c-.78-2.71-1.61-5.78-2.3-9.13H134c.17,3.59.23,7,.23,12.76v9.29Z"/><path class="cls-2" d="M146.84,163.07c0,5.9,1.7,7.18,3.3,7.18a3.68,3.68,0,0,0,2.3-.76l.34,2.27a5.2,5.2,0,0,1-3,.92c-3.33,0-5.06-3.79-5.06-9.69,0-6.26,1.9-10.17,4.68-10.17s4,4.15,4,8.53c0,.72,0,1.24,0,1.71Zm4.37-2.27c.06-3.87-1-5.58-2.07-5.58-1.44,0-2.18,3-2.27,5.58Z"/><path class="cls-2" d="M156.83,153.15l1.35,9.45c.26,2.07.57,4.15.75,6.14H159c.2-2,.55-4.23.86-6.06l1.61-9.53h1.7l1.52,9.25c.34,2.15.66,4.19.89,6.34h.11c.17-2,.43-4,.75-6.22l1.32-9.37H170l-3.5,19.3H164.7l-1.61-9.37c-.34-1.87-.55-3.59-.78-5.78h-.06c-.23,2.27-.49,4.07-.8,5.9l-1.67,9.25h-1.87l-3.39-19.3Z"/><path class="cls-2" d="M171.6,169.25a3.65,3.65,0,0,0,2.24,1c1.26,0,2-1.08,2-2.79a4.58,4.58,0,0,0-1.78-3.79c-1.81-1.63-2.79-3.27-2.79-5.5,0-3.11,1.67-5.34,3.82-5.34a3.89,3.89,0,0,1,2.5,1l-.6,2.31a2.72,2.72,0,0,0-1.84-.84c-1.21,0-1.81,1.2-1.81,2.43s.34,2,1.72,3.35a7.5,7.5,0,0,1,2.87,5.86c0,3.87-1.9,5.74-4.17,5.74a3.88,3.88,0,0,1-2.76-1.12Z"/><polygon class="cls-3" points="125.4 27.36 81.88 52.49 81.88 102.74 81.91 102.76 91.39 97.29 91.36 97.27 91.36 57.96 125.4 38.31 159.44 57.96 159.44 97.27 125.4 116.92 119.6 113.57 110.13 119.05 125.4 127.86 168.91 102.74 168.91 52.49 125.4 27.36"/><polygon class="cls-1" points="109.15 58.01 109.15 97.27 75.11 116.92 41.07 97.27 41.07 57.96 75.11 38.31 81.44 41.96 90.92 36.49 75.11 27.36 31.59 52.49 31.59 102.74 75.11 127.86 118.63 102.74 118.63 52.53 109.15 58.01"/></svg>