<svg id="Layer_1" data-name="Layer 1" xmlns="http://www.w3.org/2000/svg" width="7.06cm" height="7.06cm" viewBox="0 0 200.13 200.13"><defs><style>.cls-1{fill:#231f20;}.cls-2{fill:#f16923;}.cls-3{fill:#f16722;}</style></defs><title>blockchain-news</title><path class="cls-1" d="M12.59,153.09a17.23,17.23,0,0,1,4.94-.6c2.09,0,4.11.37,5.67,2.21a8.62,8.62,0,0,1,1.69,5.62c0,2.76-1,5.43-3.25,6.77v.18c2.59,1,4,4,4,7.42A10.32,10.32,0,0,1,24,180.77c-1.33,2-3.58,3.13-7.33,3.13a23,23,0,0,1-4-.32Zm4.35,12.3h.93c1.56,0,2.75-1.84,2.75-4.38,0-2.26-.76-4-2.55-4a2.59,2.59,0,0,0-1.13.18Zm0,13.77a3,3,0,0,0,1,.09c1.76,0,3.22-1.47,3.22-4.65s-1.53-4.7-3.25-4.74h-.93Z"/><path class="cls-1" d="M28.22,151.8h4.35v31.87H28.22Z"/><path class="cls-1" d="M47.53,172.34c0,9.4-3.75,11.7-6.2,11.7-3.88,0-6.2-4.24-6.2-11.56,0-8.11,3.05-11.7,6.27-11.7C45.21,160.78,47.53,165.24,47.53,172.34Zm-8.1,0c0,3.87.43,7.09,2,7.09,1.39,0,1.76-3.78,1.76-7.09,0-3.09-.37-7-1.82-7S39.44,169.25,39.44,172.34Z"/><path class="cls-1" d="M59,183.3a5.8,5.8,0,0,1-2.75.64c-4.11,0-6.8-4-6.8-11.33,0-7,3-11.79,7.43-11.79a4.86,4.86,0,0,1,2.39.6l-.56,4.74a3.48,3.48,0,0,0-1.63-.41c-2.09,0-3.32,2.76-3.32,6.68,0,4.1,1.23,6.59,3.25,6.59a2.74,2.74,0,0,0,1.63-.46Z"/><path class="cls-1" d="M65,171h.07c.3-1.29.53-2.21.83-3.13L68,161.15h4.68l-3.92,9.44,4.15,13.08H68.07l-2.32-9.26L65,176.35v7.32H60.67V151.8H65Z"/><path class="cls-1" d="M83,183.3a5.8,5.8,0,0,1-2.75.64c-4.11,0-6.8-4-6.8-11.33,0-7,3-11.79,7.43-11.79a4.86,4.86,0,0,1,2.39.6l-.56,4.74a3.48,3.48,0,0,0-1.63-.41c-2.09,0-3.32,2.76-3.32,6.68,0,4.1,1.23,6.59,3.25,6.59a2.74,2.74,0,0,0,1.63-.46Z"/><path class="cls-1" d="M84.76,151.8h4.35v11.7h.07a6.43,6.43,0,0,1,1.39-1.93,3.48,3.48,0,0,1,2.19-.78c3,0,4.15,3.5,4.15,9.21v13.68H92.56V170c0-2.21-.3-4.15-1.59-4.15-.73,0-1.36.6-1.69,2.12a12.3,12.3,0,0,0-.17,1.7v14H84.76Z"/><path class="cls-1" d="M107.22,183.67l-.23-2.21h-.07a4,4,0,0,1-3.58,2.58c-2.46,0-4.28-2.86-4.28-6.86,0-5.9,3.75-8.34,7.43-8.38v-.51c0-1.75-.76-3-2.29-3a4.9,4.9,0,0,0-3.32,1.29l-.8-4.05a8.37,8.37,0,0,1,5-1.7c4.94,0,5.74,4.79,5.74,9.35v8.38a41.78,41.78,0,0,0,.27,5.16Zm-.6-11c-1.46,0-3.45.69-3.45,3.82,0,2.26.9,3.09,1.56,3.09s1.49-.6,1.79-1.93a5.38,5.38,0,0,0,.1-1.06Z"/><path class="cls-1" d="M118.31,155.16c0,1.93-1,3.27-2.29,3.27s-2.19-1.34-2.16-3.27,1-3.27,2.22-3.27S118.31,153.13,118.31,155.16ZM114,183.67V161.15h4.35v22.52Z"/><path class="cls-1" d="M121.36,167.92c0-2.49-.1-4.65-.13-6.77H125l.2,2.58h.07c.86-1.8,2.26-2.95,3.95-2.95,3.09,0,4.31,3.41,4.31,8.43v14.46h-4.35V169.57c0-1.93-.33-3.73-1.59-3.73-.73,0-1.33.69-1.63,2a8,8,0,0,0-.23,2.07v13.73h-4.35Z"/><path class="cls-2" d="M137,183.67v-31h2.42l4.11,14.55c.93,3.32,2.09,7.46,2.85,10.82h.07c-.2-4.88-.3-8.89-.3-14.28v-11.1h2.29v31H146l-4.25-14.92c-.9-3.13-1.86-6.68-2.65-10.55h-.07c.2,4.15.27,8.11.27,14.74v10.73Z"/><path class="cls-2" d="M153.91,172.84c0,6.82,2,8.29,3.82,8.29a4.25,4.25,0,0,0,2.65-.88l.4,2.63a6,6,0,0,1-3.52,1.06c-3.85,0-5.84-4.38-5.84-11.19,0-7.23,2.19-11.74,5.41-11.74s4.58,4.79,4.58,9.86c0,.83,0,1.43,0,2Zm5-2.63c.07-4.47-1.16-6.45-2.39-6.45-1.66,0-2.52,3.41-2.62,6.45Z"/><path class="cls-2" d="M165.46,161.38,167,172.29c.3,2.39.66,4.79.86,7.09H168c.23-2.3.63-4.88,1-7l1.86-11h2l1.76,10.69c.4,2.49.76,4.84,1,7.32h.13c.2-2.35.5-4.65.86-7.19l1.53-10.82h2.55l-4,22.29h-2.09l-1.86-10.82c-.4-2.16-.63-4.15-.9-6.68h-.07c-.27,2.62-.56,4.7-.93,6.82l-1.92,10.69h-2.16l-3.92-22.29Z"/><path class="cls-2" d="M182.51,180a4.21,4.21,0,0,0,2.59,1.15c1.46,0,2.36-1.24,2.36-3.22a5.29,5.29,0,0,0-2.06-4.38c-2.09-1.89-3.22-3.78-3.22-6.36,0-3.59,1.92-6.17,4.41-6.17a4.49,4.49,0,0,1,2.89,1.15l-.7,2.67a3.14,3.14,0,0,0-2.12-1c-1.39,0-2.09,1.38-2.09,2.81s.4,2.35,2,3.87a8.67,8.67,0,0,1,3.32,6.77c0,4.47-2.19,6.63-4.81,6.63a4.48,4.48,0,0,1-3.19-1.29Z"/><polygon class="cls-3" points="129.14 16.09 78.88 45.11 78.88 103.15 78.92 103.17 89.86 96.86 89.83 96.83 89.83 51.43 129.14 28.73 168.46 51.43 168.46 96.83 129.14 119.53 122.45 115.67 111.5 121.99 129.14 132.17 179.41 103.15 179.41 45.11 129.14 16.09"/><polygon class="cls-1" points="110.38 51.48 110.38 96.83 71.06 119.53 31.74 96.83 31.74 51.43 71.06 28.73 78.37 32.95 89.32 26.63 71.06 16.09 20.79 45.11 20.79 103.15 71.06 132.17 121.32 103.15 121.32 45.16 110.38 51.48"/></svg>