<svg id="Layer_1" data-name="Layer 1" xmlns="http://www.w3.org/2000/svg" width="7.06cm" height="7.06cm" viewBox="0 0 200.13 200.13"><defs><style>.cls-1{fill:#231f20;}.cls-2{fill:#fabf1b;}</style></defs><title>cointelegraph</title><path class="cls-1" d="M105.12,120.78c-7,6.4-18.55,10.45-31.34,10.45-21.53,0-39-11.51-39-25.58v-4.26c7,10,21.75,17.06,39,17.06a58.48,58.48,0,0,0,20.68-3.62l1.28-5.12a54.5,54.5,0,0,1-22,4.48c-21.53,0-39-11.51-39-25.58V84.32c7,10,21.75,17.06,39,17.06a55.66,55.66,0,0,0,25.37-5.76l1.49-5.54c-7,4.48-16.42,7-26.86,7-21.53,0-39-11.51-39-25.58V67.27c7,10,21.75,17.06,39,17.06,11.94,0,22.6-3.41,30.49-8.74L106,68.76c-7.25,6.82-19,11.3-32.19,11.3-21.53,0-39-11.51-39-25.58s17.48-25.58,39-25.58c14.92,0,28.14,5.54,34.54,13.86h5.12c-6.61-10.66-22-18.12-39.65-18.12C49.9,24.63,30.5,38.06,30.5,54.48v52.23c.85,16,19.83,28.78,43.28,28.78,18.12,0,33.68-7.68,40.08-18.76Z"/><path class="cls-2" d="M103.63,154.68l8.1-34.75L88.28,130.59,103.41,69.4H75.7l6.18-28.78H169.5L162,70.47H134.33l-7,16.2L158.85,73Zm14.07-42L113,133.36l34.32-50.53L119.19,94.77,131.34,66.2h27.5l5.33-21.32H85.51L81,65.14h27.72l-14.28,58Z"/><path class="cls-1" d="M31.09,169a5.94,5.94,0,0,1,6-6.1,5.18,5.18,0,0,1,5.43,3.93l-2.45.77a2.82,2.82,0,0,0-3-2.17,3.52,3.52,0,0,0,0,7,3,3,0,0,0,3.06-2.19l2.48.71A5.38,5.38,0,0,1,37.15,175,5.87,5.87,0,0,1,31.09,169Z"/><path class="cls-1" d="M49.76,162.88A6.08,6.08,0,1,1,43.69,169,5.9,5.9,0,0,1,49.76,162.88Zm0,9.59a3.53,3.53,0,1,0-3.37-3.52A3.28,3.28,0,0,0,49.76,172.47Z"/><path class="cls-1" d="M57.68,174.78V163.12h2.63v11.66Z"/><path class="cls-1" d="M70.21,174.78l-4.8-7.67v7.67H62.82V163.12H66l4.38,7.09v-7.09H73v11.66Z"/><path class="cls-1" d="M80.7,165.61v9.18h-2.6v-9.18H74.52v-2.48h9.79v2.48Z"/><path class="cls-1" d="M85.89,174.78V163.12h7.39v2.45H88.48v2.22h4.34v2.29H88.48v2.24h4.8v2.47Z"/><path class="cls-1" d="M95.48,174.78V163.12h2.6v9.18h5v2.48Z"/><path class="cls-1" d="M104.79,174.78V163.12h7.39v2.45h-4.79v2.22h4.34v2.29h-4.34v2.24h4.8v2.47Z"/><path class="cls-1" d="M123,174.78l-.17-1.18a3.86,3.86,0,0,1-3.27,1.43,5.8,5.8,0,0,1-5.91-6.07,5.93,5.93,0,0,1,6.07-6.09,5.24,5.24,0,0,1,5.39,3.6l-2.5.87a2.81,2.81,0,0,0-2.89-2,3.68,3.68,0,0,0,.07,7.35,2.77,2.77,0,0,0,2.88-1.91h-3.5v-2.2h5.94v6.23Z"/><path class="cls-1" d="M130.84,170.44h-.92v4.34h-2.6V163.12h4.62a3.56,3.56,0,0,1,3.78,3.65,3.35,3.35,0,0,1-2.3,3.29l2.37,4.72h-2.86Zm.61-2.24c1.07,0,1.64-.59,1.64-1.41s-.58-1.41-1.64-1.41h-1.53v2.83Z"/><path class="cls-1" d="M144.61,172.42H140.1l-.84,2.37h-2.73l4.39-11.66h3l4.34,11.66h-2.83ZM141,170h2.83l-1.4-4Z"/><path class="cls-1" d="M152.31,170.59v4.19h-2.6V163.12h4.39a3.74,3.74,0,1,1,0,7.47Zm1.53-2.24a1.5,1.5,0,1,0,0-3h-1.51v3Z"/><path class="cls-1" d="M167,174.78v-4.64h-4.66v4.64h-2.6V163.12h2.6v4.57H167v-4.57h2.62v11.66Z"/></svg>