<svg id="Layer_1" data-name="Layer 1" xmlns="http://www.w3.org/2000/svg" width="7.06cm" height="7.06cm" viewBox="0 0 200.13 200.13"><defs><style>.cls-1{fill:#fabf1b;}</style></defs><title>coindesk</title><circle class="cls-1" cx="146.37" cy="56.57" r="15.25"/><circle class="cls-1" cx="54.86" cy="56.57" r="15.25"/><circle class="cls-1" cx="54.86" cy="102.33" r="15.25"/><circle class="cls-1" cx="54.86" cy="148.08" r="15.25"/><circle class="cls-1" cx="100.62" cy="148.08" r="15.25"/><circle class="cls-1" cx="100.62" cy="56.57" r="15.25"/><circle class="cls-1" cx="100.62" cy="102.33" r="5.65"/><circle class="cls-1" cx="146.37" cy="102.33" r="5.65"/><circle class="cls-1" cx="146.37" cy="148.08" r="5.65"/><path class="cls-1" d="M135.68,45.91S131.62,50,123.5,50s-12.18-4.06-12.18-4.06V56.57h24.36Z"/><path class="cls-1" d="M135.68,67.23s-4.06-4.06-12.18-4.06-12.18,4.06-12.18,4.06V56.57h24.36Z"/><path class="cls-1" d="M89.92,45.91S85.86,50,77.74,50s-12.18-4.06-12.18-4.06V56.57H89.92Z"/><path class="cls-1" d="M89.92,67.23s-4.06-4.06-12.18-4.06-12.18,4.06-12.18,4.06V56.57H89.92Z"/><path class="cls-1" d="M89.92,137.42s-4.06,4.06-12.18,4.06-12.18-4.06-12.18-4.06v10.66H89.92Z"/><path class="cls-1" d="M89.92,158.74s-4.06-4.06-12.18-4.06-12.18,4.06-12.18,4.06V148.08H89.92Z"/><path class="cls-1" d="M65.52,91.59s-4.06-4.06-4.06-12.18,4.06-12.18,4.06-12.18H54.86V91.59Z"/><path class="cls-1" d="M44.2,91.59s4.06-4.06,4.06-12.18S44.2,67.23,44.2,67.23H54.86V91.59Z"/><path class="cls-1" d="M65.52,137.67s-4.06-4.06-4.06-12.18,4.06-12.18,4.06-12.18H54.86v24.36Z"/><path class="cls-1" d="M44.2,137.67s4.06-4.06,4.06-12.18-4.06-12.18-4.06-12.18H54.86v24.36Z"/></svg>