<svg id="Layer_1" data-name="Layer 1" xmlns="http://www.w3.org/2000/svg" width="7.06cm" height="7.06cm" viewBox="0 0 200.13 200.13"><defs><style>.cls-1{fill:#fabf1b;}</style></defs><title>coinbase</title><circle class="cls-1" cx="157.46" cy="45.49" r="18.95"/><circle class="cls-1" cx="43.78" cy="45.49" r="18.95"/><circle class="cls-1" cx="43.78" cy="102.33" r="18.95"/><circle class="cls-1" cx="43.78" cy="159.17" r="18.95"/><circle class="cls-1" cx="100.62" cy="159.17" r="18.95"/><circle class="cls-1" cx="100.62" cy="45.49" r="18.95"/><circle class="cls-1" cx="100.62" cy="102.33" r="7.02"/><circle class="cls-1" cx="157.46" cy="102.33" r="7.02"/><circle class="cls-1" cx="157.46" cy="159.17" r="7.02"/><path class="cls-1" d="M144.17,32.25s-5,5-15.13,5-15.13-5-15.13-5V45.49h30.26Z"/><path class="cls-1" d="M144.17,58.73s-5-5-15.13-5-15.13,5-15.13,5V45.49h30.26Z"/><path class="cls-1" d="M87.33,32.25s-5,5-15.13,5-15.13-5-15.13-5V45.49H87.33Z"/><path class="cls-1" d="M87.33,58.73s-5-5-15.13-5-15.13,5-15.13,5V45.49H87.33Z"/><path class="cls-1" d="M87.33,145.93s-5,5-15.13,5-15.13-5-15.13-5v13.24H87.33Z"/><path class="cls-1" d="M87.33,172.41s-5-5-15.13-5-15.13,5-15.13,5V159.17H87.33Z"/><path class="cls-1" d="M57,89s-5-5-5-15.13,5-15.13,5-15.13H43.78V89Z"/><path class="cls-1" d="M30.54,89s5-5,5-15.13-5-15.13-5-15.13H43.78V89Z"/><path class="cls-1" d="M57,146.23s-5-5-5-15.13S57,116,57,116H43.78v30.26Z"/><path class="cls-1" d="M30.54,146.23s5-5,5-15.13-5-15.13-5-15.13H43.78v30.26Z"/></svg>