<svg id="Layer_1" data-name="Layer 1" xmlns="http://www.w3.org/2000/svg" width="7.06cm" height="7.06cm" viewBox="0 0 200.13 200.13"><defs><style>.cls-1{fill:#fabf1b;}.cls-2{fill:#231f20;}</style></defs><title>coindesk</title><circle class="cls-1" cx="143.77" cy="41.21" r="14.19"/><circle class="cls-1" cx="58.65" cy="41.21" r="14.19"/><circle class="cls-1" cx="58.65" cy="83.77" r="14.19"/><circle class="cls-1" cx="58.65" cy="126.32" r="14.19"/><circle class="cls-1" cx="101.21" cy="126.32" r="14.19"/><circle class="cls-1" cx="101.21" cy="41.21" r="14.19"/><circle class="cls-1" cx="101.21" cy="83.77" r="5.25"/><circle class="cls-1" cx="143.77" cy="83.77" r="5.25"/><circle class="cls-1" cx="143.77" cy="126.32" r="5.25"/><path class="cls-1" d="M133.82,31.29s-3.78,3.78-11.33,3.78-11.33-3.78-11.33-3.78v9.91h22.66Z"/><path class="cls-1" d="M133.82,51.12s-3.78-3.78-11.33-3.78-11.33,3.78-11.33,3.78V41.21h22.66Z"/><path class="cls-1" d="M91.26,31.29s-3.78,3.78-11.33,3.78S68.6,31.29,68.6,31.29v9.91H91.26Z"/><path class="cls-1" d="M91.26,51.12s-3.78-3.78-11.33-3.78S68.6,51.12,68.6,51.12V41.21H91.26Z"/><path class="cls-1" d="M91.26,116.41s-3.78,3.78-11.33,3.78-11.33-3.78-11.33-3.78v9.91H91.26Z"/><path class="cls-1" d="M91.26,136.24s-3.78-3.78-11.33-3.78-11.33,3.78-11.33,3.78v-9.91H91.26Z"/><path class="cls-1" d="M68.57,73.78S64.79,70,64.79,62.45s3.78-11.33,3.78-11.33H58.65V73.78Z"/><path class="cls-1" d="M48.74,73.78S52.52,70,52.52,62.45s-3.78-11.33-3.78-11.33h9.91V73.78Z"/><path class="cls-1" d="M68.57,116.63s-3.78-3.78-3.78-11.33S68.57,94,68.57,94H58.65v22.66Z"/><path class="cls-1" d="M48.74,116.63s3.78-3.78,3.78-11.33S48.74,94,48.74,94h9.91v22.66Z"/><path class="cls-2" d="M61.59,170.62A3.28,3.28,0,0,1,58.78,172c-2.34,0-4-1.81-4-4.41s1.64-4.44,4-4.44a3.1,3.1,0,0,1,2.63,1.41l.15.26,1.72-1.29-.15-.22a5.47,5.47,0,0,0-4.38-2.13,6.41,6.41,0,0,0,0,12.81,5.39,5.39,0,0,0,4.46-2.12l.17-.22-1.66-1.29Z"/><path class="cls-2" d="M70.69,161.2a6.41,6.41,0,1,0,6.24,6.41A6.11,6.11,0,0,0,70.69,161.2Zm0,10.82c-2.33,0-4-1.81-4-4.41s1.62-4.44,4-4.44,4,1.82,4,4.44S73,172,70.69,172Z"/><path class="cls-2" d="M81,155.82a1.47,1.47,0,1,0,1.42,1.47A1.46,1.46,0,0,0,81,155.82Z"/><rect class="cls-2" x="79.89" y="161.5" width="2.17" height="12.21"/><path class="cls-2" d="M91.52,161.2a4.76,4.76,0,0,0-3.62,1.73c0-.4,0-.83-.07-1.17l0-.25h-2.1l0,.3c.06.72.09,1.82.09,2.54v9.37H88v-6.26c0-3,1.56-4.29,3.12-4.29,1.93,0,2.76,1.14,2.76,3.81v6.73H96v-7.43a5.62,5.62,0,0,0-1.12-3.67A4.26,4.26,0,0,0,91.52,161.2Z"/><path class="cls-2" d="M108.94,163a5.31,5.31,0,0,0-4-1.83c-3.51,0-6,2.69-6,6.41s2.54,6.41,6,6.41a5.38,5.38,0,0,0,4-1.79v1.5h2.17V154.32h-2.17Zm-3.83,9c-2.73,0-4-2.22-4-4.41s1.22-4.44,4-4.44c2.33,0,4,1.87,4,4.44A4.09,4.09,0,0,1,105.11,172Z"/><path class="cls-2" d="M120,161.2c-3.37,0-5.91,2.75-5.91,6.41a6.1,6.1,0,0,0,6,6.41,6,6,0,0,0,5-2.58l.16-.21-1.67-1.37-.16.27a3.84,3.84,0,0,1-7.14-1.81h9.23l0-.25c0-.31,0-.59,0-.82A6.52,6.52,0,0,0,124.2,163,5.33,5.33,0,0,0,120,161.2Zm-3.61,5.24a3.74,3.74,0,0,1,3.61-3.27,3.29,3.29,0,0,1,3.41,3.27Z"/><path class="cls-2" d="M132.4,166.44c-1.81-.39-2.46-.85-2.46-1.73,0-1.14,1.08-1.55,2.09-1.55a2.74,2.74,0,0,1,2.5,1.49l.15.3,1.69-1.32-.11-.2a4.75,4.75,0,0,0-4.16-2.24c-2,0-4.26,1-4.26,3.66s2.39,3.16,3.41,3.41c2.34.58,3.09,1.06,3.09,2,0,1.46-1.28,1.77-2.35,1.77a3.38,3.38,0,0,1-2.86-1.68l-.16-.28-1.74,1.35.14.21A5.41,5.41,0,0,0,132,174c2.16,0,4.47-1,4.47-3.89C136.48,168.2,135.22,167.06,132.4,166.44Z"/><polygon class="cls-2" points="143.42 167.12 149.35 161.5 146.21 161.5 141.37 166.44 141.37 154.32 139.2 154.32 139.2 173.72 141.37 173.72 141.37 167.93 146.73 173.72 149.89 173.72 143.42 167.12"/></svg>