<svg xmlns="http://www.w3.org/2000/svg" xmlns:xlink="http://www.w3.org/1999/xlink" width="7.06cm" height="7.06cm" viewBox="0 0 200.13 200.13"><defs><style>.cls-1{isolation:isolate;}.cls-2{fill:#231f20;}.cls-3{fill:#8c2efc;}.cls-4{fill:url(#linear-gradient);}.cls-5{fill:url(#linear-gradient-2);}.cls-6{fill:url(#linear-gradient-3);}.cls-7{fill:url(#linear-gradient-4);}.cls-8{fill:url(#linear-gradient-5);}.cls-10,.cls-9{mix-blend-mode:multiply;}.cls-9{fill:url(#linear-gradient-6);}.cls-10{fill:url(#linear-gradient-7);}.cls-11{fill:#665b9d;opacity:0.4;}</style><linearGradient id="linear-gradient" x1="74.97" y1="110.01" x2="71.48" y2="59.55" gradientUnits="userSpaceOnUse"><stop offset="0" stop-color="#0b00b0" stop-opacity="0.7"/><stop offset="1" stop-color="#7255a3" stop-opacity="0"/></linearGradient><linearGradient id="linear-gradient-2" x1="82.42" y1="123.1" x2="110.86" y2="88.06" gradientUnits="userSpaceOnUse"><stop offset="0.33" stop-color="#7255a3" stop-opacity="0"/><stop offset="1" stop-color="#0b00b0" stop-opacity="0.7"/></linearGradient><linearGradient id="linear-gradient-3" x1="80.01" y1="67.72" x2="123.64" y2="67.72" gradientUnits="userSpaceOnUse"><stop offset="0" stop-color="#0b00b0" stop-opacity="0.7"/><stop offset="0.64" stop-color="#7255a3" stop-opacity="0"/></linearGradient><linearGradient id="linear-gradient-4" x1="55.66" y1="37.3" x2="60.43" y2="82.86" gradientUnits="userSpaceOnUse"><stop offset="0" stop-color="#0b00b0" stop-opacity="0.7"/><stop offset="0.15" stop-color="#1004af" stop-opacity="0.67"/><stop offset="0.35" stop-color="#1e10ae" stop-opacity="0.57"/><stop offset="0.57" stop-color="#3623ab" stop-opacity="0.41"/><stop offset="0.82" stop-color="#573ea6" stop-opacity="0.19"/><stop offset="1" stop-color="#7255a3" stop-opacity="0"/></linearGradient><linearGradient id="linear-gradient-5" x1="56.57" y1="118.04" x2="153.3" y2="118.04" xlink:href="#linear-gradient-3"/><linearGradient id="linear-gradient-6" x1="108.37" y1="98.19" x2="117.13" y2="87.39" gradientUnits="userSpaceOnUse"><stop offset="0" stop-color="#fff" stop-opacity="0"/><stop offset="1" stop-color="#231f20" stop-opacity="0.3"/></linearGradient><linearGradient id="linear-gradient-7" x1="-1500.15" y1="1788.93" x2="-1491.02" y2="1777.67" gradientTransform="translate(-2189.06 -422.27) rotate(-117.98)" xlink:href="#linear-gradient-6"/></defs><title>eth-news</title><g class="cls-1"><g id="Layer_1" data-name="Layer 1"><path class="cls-2" d="M51.62,173.22V156.61H63.94v2.81H55v3.68h8.34v2.8H55v4.52h9.28v2.8Z"/><path class="cls-2" d="M70.84,173.22v-13.8H65.91v-2.81h13.2v2.81H74.19v13.8Z"/><path class="cls-2" d="M81.28,173.22V156.61h3.35v6.54h6.57v-6.54h3.35v16.61H91.21V166H84.64v7.26Z"/><path class="cls-2" d="M98.12,156.53h4.53L112.86,169v-9.63a3.31,3.31,0,0,0-.34-1.92,1.83,1.83,0,0,0-1.44-.52h-.58v-.46h5.81V157h-.59a1.7,1.7,0,0,0-1.5.64,3.74,3.74,0,0,0-.27,1.8v14.07h-.44L102.5,160v10.28a3.41,3.41,0,0,0,.33,1.92,1.85,1.85,0,0,0,1.44.52h.59v.46H99v-.46h.58a1.71,1.71,0,0,0,1.51-.64,3.74,3.74,0,0,0,.27-1.8V158.72a7.56,7.56,0,0,0-1.1-1.12,4,4,0,0,0-1.1-.51,3.93,3.93,0,0,0-1.08-.11Z"/><path class="cls-2" d="M119.35,166.19a5.8,5.8,0,0,0,1.22,3.94,3.72,3.72,0,0,0,2.89,1.43,3.14,3.14,0,0,0,1.93-.61,4.5,4.5,0,0,0,1.37-2.09l.38.25a5.87,5.87,0,0,1-1.5,3.07,4,4,0,0,1-3.12,1.39,4.55,4.55,0,0,1-3.48-1.58,6.06,6.06,0,0,1-1.45-4.25,6.43,6.43,0,0,1,1.48-4.51,4.84,4.84,0,0,1,3.72-1.62,4.16,4.16,0,0,1,3.11,1.25,4.58,4.58,0,0,1,1.22,3.34Zm0-.71h5.22a4.84,4.84,0,0,0-.26-1.53,2.44,2.44,0,0,0-.92-1.08,2.31,2.31,0,0,0-1.27-.39,2.54,2.54,0,0,0-1.83.79A3.44,3.44,0,0,0,119.35,165.48Z"/><path class="cls-2" d="M128,161.94h4.73v.46a1.53,1.53,0,0,0-.86.23.68.68,0,0,0-.2.53,2.64,2.64,0,0,0,.21.92l2.41,6.49,2.43-5.28-.64-1.66a2,2,0,0,0-.78-1,2.26,2.26,0,0,0-1-.21v-.46h5.37v.46a2.28,2.28,0,0,0-1.26.32.76.76,0,0,0-.25.63,1.4,1.4,0,0,0,.1.51l2.56,6.48,2.38-6.24a3.28,3.28,0,0,0,.25-1.06.53.53,0,0,0-.24-.42,1.77,1.77,0,0,0-.94-.21v-.46h3.56v.46a2,2,0,0,0-1.58,1.45l-3.77,9.71H140l-2.82-7.2-3.29,7.2h-.46l-3.62-9.48a3.41,3.41,0,0,0-.7-1.21,2.34,2.34,0,0,0-1.08-.47Z"/><path class="cls-2" d="M154.15,161.61v3.84h-.41a5,5,0,0,0-1.2-2.46,2.7,2.7,0,0,0-1.87-.65,2.06,2.06,0,0,0-1.39.46,1.32,1.32,0,0,0-.53,1,1.83,1.83,0,0,0,.39,1.18,4.39,4.39,0,0,0,1.55,1.07l1.8.87q2.5,1.22,2.5,3.21a3,3,0,0,1-1.16,2.48,4,4,0,0,1-2.6.94,9,9,0,0,1-2.36-.37,2.4,2.4,0,0,0-.66-.12.49.49,0,0,0-.44.32h-.41v-4h.41a4.58,4.58,0,0,0,1.32,2.6,3.18,3.18,0,0,0,2.18.87,2,2,0,0,0,1.38-.5,1.58,1.58,0,0,0,.54-1.2,1.91,1.91,0,0,0-.6-1.43,10.45,10.45,0,0,0-2.38-1.47,7.06,7.06,0,0,1-2.34-1.6,2.77,2.77,0,0,1-.55-1.77,3.13,3.13,0,0,1,1-2.33,3.38,3.38,0,0,1,2.47-.94,5.81,5.81,0,0,1,1.61.28,3.8,3.8,0,0,0,.84.18.49.49,0,0,0,.31-.09,1.18,1.18,0,0,0,.26-.38Z"/><path class="cls-2" d="M159.05,173.49v-1.93h-.69v-.39h1.85v.39h-.69v1.93Z"/><path class="cls-2" d="M160.5,173.49v-2.32h.7l.42,1.59.42-1.59h.7v2.32h-.44v-1.83l-.46,1.83h-.45l-.46-1.83v1.83Z"/><path class="cls-3" d="M123.64,70.93,153.3,88.06V75.39L110.5,50.68,66.88,25.5l0,0v85.61l-4,2.3-.06,0V28.75L52.52,36.95v97.13l0,0,29.83-17L126,92l4.26,2.47L86.64,119.59,56.55,136.71l9.8,6.41,44.15-25.49L153.27,93,123.64,75.86,80,50.67V45.75ZM80.15,84.77V66.17l16.11,9.3,16.11,9.3-16.11,9.3-16.11,9.3Z"/><path class="cls-4" d="M66.88,25.5l0,0v85.61l13.32-7.77V66.18Z"/><path class="cls-5" d="M82.37,117.12,126,92l-13.6-7.22-16.11,9.3-16.11,9.3Z"/><path class="cls-6" d="M80.15,66.17l16.11,9.3,16.11,9.3,11.27-8.91L80,50.67Z"/><path class="cls-7" d="M62.86,113.41l-.06,0V28.72L52.52,36.92V84.13"/><path class="cls-8" d="M130.26,94.46,86.66,119.59,56.57,136.71l9.8,6.41,44.15-25.49L153.3,93"/><path class="cls-9" d="M126,92l-13.6-7.22L101.7,90.94Z"/><path class="cls-10" d="M80.14,50.76l0,15.5,11,6.37Z"/><path class="cls-11" d="M66.83,111.15l13.32-7.77V84.78Z"/><path class="cls-2" d="M143.3,117.12V111.9h-1.86v-1.06h5v1.06h-1.86v5.22Z"/><path class="cls-2" d="M147.23,117.12v-6.28h1.9l1.14,4.29,1.13-4.29h1.9v6.28h-1.18v-4.95l-1.25,4.95h-1.22l-1.24-4.95v4.95Z"/></g></g></svg>