<svg xmlns="http://www.w3.org/2000/svg" xmlns:xlink="http://www.w3.org/1999/xlink" width="7.06cm" height="7.06cm" viewBox="0 0 200.13 200.13"><defs><style>.cls-1{isolation:isolate;}.cls-2{fill:#8c2efc;}.cls-3{fill:url(#linear-gradient);}.cls-4{fill:url(#linear-gradient-2);}.cls-5{fill:url(#linear-gradient-3);}.cls-6{fill:url(#linear-gradient-4);}.cls-7{fill:url(#linear-gradient-5);}.cls-8,.cls-9{mix-blend-mode:multiply;}.cls-8{fill:url(#linear-gradient-6);}.cls-9{fill:url(#linear-gradient-7);}.cls-10{fill:#665b9d;opacity:0.4;}</style><linearGradient id="linear-gradient" x1="58.83" y1="137.98" x2="53.68" y2="63.53" gradientUnits="userSpaceOnUse"><stop offset="0" stop-color="#0b00b0" stop-opacity="0.7"/><stop offset="1" stop-color="#7255a3" stop-opacity="0"/></linearGradient><linearGradient id="linear-gradient-2" x1="69.83" y1="157.3" x2="111.79" y2="105.59" gradientUnits="userSpaceOnUse"><stop offset="0.33" stop-color="#7255a3" stop-opacity="0"/><stop offset="1" stop-color="#0b00b0" stop-opacity="0.7"/></linearGradient><linearGradient id="linear-gradient-3" x1="66.28" y1="75.58" x2="130.65" y2="75.58" gradientUnits="userSpaceOnUse"><stop offset="0" stop-color="#0b00b0" stop-opacity="0.7"/><stop offset="0.64" stop-color="#7255a3" stop-opacity="0"/></linearGradient><linearGradient id="linear-gradient-4" x1="30.33" y1="30.69" x2="37.37" y2="97.93" gradientUnits="userSpaceOnUse"><stop offset="0" stop-color="#0b00b0" stop-opacity="0.7"/><stop offset="0.15" stop-color="#1004af" stop-opacity="0.67"/><stop offset="0.35" stop-color="#1e10ae" stop-opacity="0.57"/><stop offset="0.57" stop-color="#3623ab" stop-opacity="0.41"/><stop offset="0.82" stop-color="#573ea6" stop-opacity="0.19"/><stop offset="1" stop-color="#7255a3" stop-opacity="0"/></linearGradient><linearGradient id="linear-gradient-5" x1="31.69" y1="149.84" x2="174.42" y2="149.84" xlink:href="#linear-gradient-3"/><linearGradient id="linear-gradient-6" x1="108.12" y1="120.54" x2="121.05" y2="104.61" gradientUnits="userSpaceOnUse"><stop offset="0" stop-color="#fff" stop-opacity="0"/><stop offset="1" stop-color="#231f20" stop-opacity="0.3"/></linearGradient><linearGradient id="linear-gradient-7" x1="-1502.08" y1="1780.16" x2="-1488.61" y2="1763.56" gradientTransform="translate(-2189.06 -422.27) rotate(-117.98)" xlink:href="#linear-gradient-6"/></defs><title>eth-news</title><g class="cls-1"><g id="Layer_1" data-name="Layer 1"><path class="cls-2" d="M130.65,80.32l43.77,25.27V86.9L111.27,50.44,46.9,13.28l-.07.05V139.66L41,143l-.09-.06V18.08L25.71,30.17V173.5l0,0,44-25,64.33-37.08,6.29,3.64L76.05,152.12l-44.4,25.26,14.47,9.46,65.15-37.62,63.11-36.4L130.65,87.59,66.28,50.42V43.16ZM66.48,100.74V73.3L90.24,87,114,100.74,90.24,114.47,66.48,128.19Z"/><path class="cls-3" d="M46.9,13.29l-.07.05V139.67L66.48,128.2V73.31Z"/><path class="cls-4" d="M69.75,148.48l64.33-37.08L114,100.74,90.23,114.47,66.46,128.19Z"/><path class="cls-5" d="M66.48,73.3,90.24,87,114,100.74l16.63-13.15L66.28,50.42Z"/><path class="cls-6" d="M41,143l-.09-.06V18L25.71,30.13V99.8"/><path class="cls-7" d="M140.41,115,76.09,152.12l-44.4,25.26,14.47,9.46,65.15-37.62,63.11-36.4"/><path class="cls-8" d="M134.07,111.4,114,100.74l-15.73,9.1Z"/><path class="cls-9" d="M66.46,50.55l.07,22.88,16.29,9.4Z"/><path class="cls-10" d="M46.83,139.67,66.48,128.2V100.75Z"/></g></g></svg>