<svg xmlns="http://www.w3.org/2000/svg" xmlns:xlink="http://www.w3.org/1999/xlink" width="7.06cm" height="7.06cm" viewBox="0 0 200.13 200.13"><defs><style>.cls-1{isolation:isolate;}.cls-2{fill:#8c2efc;}.cls-3{fill:url(#linear-gradient);}.cls-4{fill:url(#linear-gradient-2);}.cls-5{fill:url(#linear-gradient-3);}.cls-6{fill:url(#linear-gradient-4);}.cls-7{fill:url(#linear-gradient-5);}.cls-8,.cls-9{mix-blend-mode:multiply;}.cls-8{fill:url(#linear-gradient-6);}.cls-9{fill:url(#linear-gradient-7);}.cls-10{fill:#665b9d;opacity:0.4;}</style><linearGradient id="linear-gradient" x1="71.07" y1="128.8" x2="67.18" y2="72.37" gradientUnits="userSpaceOnUse"><stop offset="0" stop-color="#0b00b0" stop-opacity="0.7"/><stop offset="1" stop-color="#7255a3" stop-opacity="0"/></linearGradient><linearGradient id="linear-gradient-2" x1="79.41" y1="143.45" x2="111.22" y2="104.25" gradientUnits="userSpaceOnUse"><stop offset="0.33" stop-color="#7255a3" stop-opacity="0"/><stop offset="1" stop-color="#0b00b0" stop-opacity="0.7"/></linearGradient><linearGradient id="linear-gradient-3" x1="76.72" y1="81.51" x2="125.51" y2="81.51" gradientUnits="userSpaceOnUse"><stop offset="0" stop-color="#0b00b0" stop-opacity="0.7"/><stop offset="0.64" stop-color="#7255a3" stop-opacity="0"/></linearGradient><linearGradient id="linear-gradient-4" x1="49.48" y1="47.49" x2="54.82" y2="98.45" gradientUnits="userSpaceOnUse"><stop offset="0" stop-color="#0b00b0" stop-opacity="0.7"/><stop offset="0.15" stop-color="#1004af" stop-opacity="0.67"/><stop offset="0.35" stop-color="#1e10ae" stop-opacity="0.57"/><stop offset="0.57" stop-color="#3623ab" stop-opacity="0.41"/><stop offset="0.82" stop-color="#573ea6" stop-opacity="0.19"/><stop offset="1" stop-color="#7255a3" stop-opacity="0"/></linearGradient><linearGradient id="linear-gradient-5" x1="50.5" y1="137.79" x2="158.68" y2="137.79" xlink:href="#linear-gradient-3"/><linearGradient id="linear-gradient-6" x1="108.44" y1="115.58" x2="118.23" y2="103.51" gradientUnits="userSpaceOnUse"><stop offset="0" stop-color="#fff" stop-opacity="0"/><stop offset="1" stop-color="#231f20" stop-opacity="0.3"/></linearGradient><linearGradient id="linear-gradient-7" x1="-1511.14" y1="1781.3" x2="-1500.93" y2="1768.72" gradientTransform="translate(-2189.06 -422.27) rotate(-117.98)" xlink:href="#linear-gradient-6"/></defs><title>eth-news</title><g class="cls-1"><g id="Layer_1" data-name="Layer 1"><path class="cls-2" d="M125.51,85.1l33.17,19.15V90.09L110.82,62.45,62,34.29l-.05,0v95.74l-4.45,2.57-.06,0V37.93L46,47.09V155.72l0,0,33.36-19,48.75-28.11,4.77,2.76L84.13,139.52,50.47,158.67l11,7.17,49.38-28.51,47.84-27.58L125.51,90.61,76.72,62.44V56.93ZM76.87,100.58V79.78l18,10.4,18,10.4-18,10.4-18,10.4Z"/><path class="cls-3" d="M62,34.3l-.05,0v95.74l14.89-8.69V79.78Z"/><path class="cls-4" d="M79.35,136.76l48.75-28.11-15.21-8.08-18,10.4-18,10.4Z"/><path class="cls-5" d="M76.87,79.78l18,10.4,18,10.4,12.61-10L76.72,62.44Z"/><path class="cls-6" d="M57.53,132.61l-.06,0V37.9L46,47.06v52.8"/><path class="cls-7" d="M132.91,111.41,84.16,139.52,50.5,158.67l11,7.17,49.38-28.51,47.84-27.58"/><path class="cls-8" d="M128.1,108.65l-15.21-8.08L101,107.48Z"/><path class="cls-9" d="M76.86,62.54l.05,17.34L89.25,87Z"/><path class="cls-10" d="M62,130.08l14.89-8.69v-20.8Z"/></g></g></svg>