<svg id="Layer_1" data-name="Layer 1" xmlns="http://www.w3.org/2000/svg" width="7.06cm" height="7.06cm" viewBox="0 0 200.13 200.13"><defs><style>.cls-1{fill:#346299;}</style></defs><title>forbes</title><path class="cls-1" d="M71.56,103.92c-.74-6.25-3.39-10.83-7.76-13.4-4.86-2.86-12.25-3-17.5-.39A17,17,0,0,0,38,99.91a25.15,25.15,0,0,0,0,14.48,15.78,15.78,0,0,0,4,6.8,15.3,15.3,0,0,0,8.69,4.2,38,38,0,0,0,6.35,0,20,20,0,0,0,2.3-.5c6.19-1.79,10.42-6.55,11.87-13.36A32.9,32.9,0,0,0,71.56,103.92ZM61,111.43c-.47,6.57-1.89,10.14-4.55,11.38a5.13,5.13,0,0,1-3.6,0c-2.31-1-4-4.24-4.78-9.29a63.82,63.82,0,0,1-.1-13.81C48.61,94.87,50,92,52.22,91a4.82,4.82,0,0,1,4.93.94C60.12,94.62,61.62,102.27,61,111.43Z"/><path class="cls-1" d="M134.76,104.7a17.89,17.89,0,0,0-2.08-8.31,13.11,13.11,0,0,0-8.81-7.07,15.35,15.35,0,0,0-9,1.14,8.44,8.44,0,0,1-1.43.57c-.18,0-.2-1-.15-8.22l.05-8.22-.57.11-7,1.31-6.79,1.27c-.26.06-.3.16-.28.6s.07.54.59.65c1.79.39,2.1.53,2.77,1.22.81.84,1.18,1.91,1.42,4.15.19,1.78.23,32.53.05,37.07l-.11,2.69,1.45.31c5.5,1.18,11,1.58,14.41,1.07a17.16,17.16,0,0,0,10.08-4.72C133.16,116.57,135,111.25,134.76,104.7Zm-10.57,6.55c-.65,4.1-1.83,7.27-3.47,9.32a7.26,7.26,0,0,1-3.15,2.24,10.63,10.63,0,0,1-3.37.11,1.24,1.24,0,0,1-.68-.25c-.24-.29-.5-19.42-.34-25l.13-4.44,1.13-.32a7,7,0,0,1,4.72.2c2.55,1.21,4.22,4.19,5.09,9.07A46.63,46.63,0,0,1,124.19,111.24Z"/><path class="cls-1" d="M169.18,102.51c-.65-6.33-3.21-10.69-7.57-12.87-3.87-1.94-9.85-1.8-14.22.33a16.53,16.53,0,0,0-8.58,10.14,20.11,20.11,0,0,0-1,7.68,20.61,20.61,0,0,0,.36,4c1.63,7.29,6.63,12.25,13.62,13.51a26.43,26.43,0,0,0,6.59,0,18.08,18.08,0,0,0,6.4-2.47c2-1.33,4-3.33,4-4,0-.38-.68-1.25-1-1.25a4.85,4.85,0,0,0-1.22.63,10.76,10.76,0,0,1-6.34,1.76,10.07,10.07,0,0,1-8-3.16,9,9,0,0,1-1.92-2.55,17.5,17.5,0,0,1-1.84-7.57l0-1.23,10.43,0,10.43,0,0-.7A18.49,18.49,0,0,0,169.18,102.51Zm-11.71.12c-2.94.16-9.26.25-9.33.12a20.6,20.6,0,0,1,.42-4q.94-4.7,3-6.78a3.57,3.57,0,0,1,1.69-1.16,5.45,5.45,0,0,1,1.05-.22,3.12,3.12,0,0,1,2,.86c1.52,1.4,2.4,4.42,2.57,8.89l.09,2.2Z"/><path class="cls-1" d="M186.65,125.06c6-.91,9.85-4.12,10.86-9a11.32,11.32,0,0,0-.59-6.76c-1.19-2.47-3.19-4-8.16-6.06-3.69-1.56-5.9-2.88-6.81-4.07a4.3,4.3,0,0,1-1-3,5,5,0,0,1,2.19-4.43,5.51,5.51,0,0,1,4.44-.57c2.11.5,3.7,1.79,5.13,4.19a31.54,31.54,0,0,1,1.85,4.22c.07.2.15.21.64.07a2.63,2.63,0,0,0,.66-.26c.05-.05,0-2.07,0-4.48l-.1-4.39-.51-.22a29.78,29.78,0,0,0-4.6-1.25,24.32,24.32,0,0,0-4.72-.26c-3.13,0-3.39,0-4.68.38a12,12,0,0,0-8,6.08,9.27,9.27,0,0,0-1,4.66,8.76,8.76,0,0,0,2.36,6.39c1.39,1.49,3.2,2.55,6.27,3.68a24.93,24.93,0,0,1,5.87,2.93,5.41,5.41,0,0,1,1.32,1.59,3.41,3.41,0,0,1,.49,2.31,4,4,0,0,1-.45,2.35c-1.07,2.26-3.21,3.38-6,3.15-3.81-.31-6.49-2.83-8.68-8.15-.57-1.39-.61-1.42-1.48-1.09l-.4.15.1,5c.09,4.4.13,5,.34,5.14.63.48,4.68,1.44,7.49,1.78a33.73,33.73,0,0,0,7.19,0Z"/><path class="cls-1" d="M27.59,123.5a1.86,1.86,0,0,0-.08-.77,22.85,22.85,0,0,1-4.3-.93c-1.79-.9-2.62-3-2.94-7.6C20,111,19.81,101.43,20,101.28a55,55,0,0,1,6.79.27c1.92.46,3.41,2.35,4.15,5.3l.33,1.3.86,0,.86,0V91.88H32c-.86,0-.92,0-.92.32a12.12,12.12,0,0,1-1,3.29,5,5,0,0,1-3.33,3c-.35.08-2,.21-3.66.29-2.35.11-3,.1-3.14,0s.21-18.79.39-19.66l.07-.32,5.17,0,5.17,0,1.2.43c2.79,1,4.79,3,6.47,6.58.38.8.86,2,1.07,2.57s.4,1.15.42,1.17a5.74,5.74,0,0,0,1-.26l1-.3-.07-4.6c0-2.53-.11-5.57-.15-6.75l-.08-2.15H2.36l0,.88,0,.88,1.27.16a5.67,5.67,0,0,1,3,.89,5.62,5.62,0,0,1,2.07,3.58c.62,2.69.84,8.75.74,20.1-.11,12-.26,14.49-1,16.91a4.38,4.38,0,0,1-3.73,3.36c-.53.09-1.29.23-1.67.31l-.71.15v1.53H27.59v-.77Z"/><path class="cls-1" d="M92.54,123.52v-.76l-1.09-.09c-2.52-.21-3.21-.47-3.87-1.42-1-1.38-1.17-3.93-1.17-14.25V98.94l.35-.37a6.83,6.83,0,0,1,2.79-1.33,10.7,10.7,0,0,1,6.48.91,5.11,5.11,0,0,0,1.08.45c.06-.06,3.31-8.64,3.41-9,0-.16-.14-.31-.69-.53a7.56,7.56,0,0,0-3.49-.55c-3.5.2-6.6,2.53-8.84,6.62a4.1,4.1,0,0,1-.85,1.24c-.14,0-.16-.78-.08-3.88l.1-3.88-.34.08L80.07,90c-7,1.4-7.95,1.6-8.12,1.71a.9.9,0,0,0-.13.56c0,.53-.06.5,1.52.76,2.18.35,3,1.41,3.28,4.52.42,4.05.25,19.85-.24,22a4.2,4.2,0,0,1-1.55,2.54,7.63,7.63,0,0,1-1.69.5l-1.25.24,0,.74,0,.74H92.54v-.76Z"/></svg>