<svg id="Layer_1" data-name="Layer 1" xmlns="http://www.w3.org/2000/svg" width="7.06cm" height="7.06cm" viewBox="0 0 200.13 200.13"><defs><style>.cls-1{fill:#211e1f;}.cls-2{fill:#7ec142;}.cls-3{fill:#231f20;}</style></defs><title>ibt</title><path class="cls-1" d="M34.37,81.77H37.1V71.17H7.27v10.6H10a2.63,2.63,0,0,1,2.62,2.62v31.83A2.63,2.63,0,0,1,10,118.84H7.27V129H37.1V118.84H34.37a2.63,2.63,0,0,1-2.62-2.62V84.39A2.63,2.63,0,0,1,34.37,81.77Z"/><path class="cls-1" d="M99.89,111.68c-.34-6.19-5.36-11.28-12.42-13.56C93.67,96,98,91.54,98.24,86.22c.35-7.8-8.25-14.53-19.2-15l-.63,0v0H46.12v10.6h2.73a2.63,2.63,0,0,1,2.62,2.62v31.83a2.63,2.63,0,0,1-2.62,2.62H46.12V129H66.35v0H76.83v-.05c.81,0,1.64,0,2.47,0C91.16,128.2,100.38,120.51,99.89,111.68Zm-30-29.54h3.56a6,6,0,0,1,5.93,5.93v.48a6,6,0,0,1-5.93,5.93H69.89Zm10.48,29.64a6.53,6.53,0,0,1-6.51,6.51h-4V104.24h4a6.53,6.53,0,0,1,6.51,6.51Z"/><path class="cls-1" d="M145.69,71.17H104.11V92.41h11.25l1.39-10.64h4.47v34.45a2.63,2.63,0,0,1-2.62,2.62h-2.73V129h29.83V118.84H143a2.63,2.63,0,0,1-2.62-2.62V81.77h4.47l1.39,10.64h11.25V71.17Z"/><polygon class="cls-2" points="192.85 102.33 168.28 102.33 163.66 128.92 188.23 128.92 192.85 102.33"/><path class="cls-3" d="M166.71,77.43v-4.3h1.91a2.54,2.54,0,0,1,.87.12,1,1,0,0,1,.48.41,1.22,1.22,0,0,1,.18.65,1.08,1.08,0,0,1-.3.77,1.5,1.5,0,0,1-.92.4,1.48,1.48,0,0,1,.34.21,2.94,2.94,0,0,1,.47.57l.75,1.17h-.72l-.57-.9q-.25-.39-.41-.59a1.3,1.3,0,0,0-.29-.29.86.86,0,0,0-.26-.11l-.32,0h-.66v1.91Zm.57-2.4h1.22a1.84,1.84,0,0,0,.61-.08.65.65,0,0,0,.33-.26.7.7,0,0,0,.11-.39.64.64,0,0,0-.22-.5,1,1,0,0,0-.7-.2h-1.36Z"/><path class="cls-3" d="M168.41,71.17a4.14,4.14,0,1,0,4.14,4.14A4.14,4.14,0,0,0,168.41,71.17Zm0,7.75a3.6,3.6,0,1,1,3.6-3.6A3.6,3.6,0,0,1,168.41,78.92Z"/></svg>